<svg xmlns="http://www.w3.org/2000/svg" viewBox="0 0 512 512">
    <defs>
        <clipPath id="a">
            <path fill-opacity=".7" d="M6.2 0h18v18h-18z"/>
        </clipPath>
    </defs>
    <g clip-path="url(#a)" transform="translate(-176.4) scale(28.44445)">
        <path fill="#fff" d="M0 0h30v18H0z"/>
        <path fill="#df112d" fill-rule="evenodd" d="M0 0v1.2L13 9 0 16.8V18h2l13-7.8L28 18h2v-1.2L17 9l13-7.8V0h-2L15 7.8 2 0H0z"/>
        <g stroke="#000">
            <path fill="#e8112d" stroke-width=".012217" d="M16.612 2.712c.379 1.564.171 3.494-1.576 4.57-1.735-1.076-1.955-3.006-1.564-4.57.416-.366 2.273-.598 3.14 0z"/>
            <path fill="#f9dd16" stroke-width=".012217" d="M15.048 2.395c.55-.013 1.1.122 1.576.39a3.42 3.42 0 0 1 .599-1.478c-.306 0-.44.159-.44.318-.073-.208-.367-.196-.464-.086.33.22.073.611-.22.538-.135-.037-.208-.134-.244-.281a.159.159 0 1 0-.062 0c-.085.122-.232.195-.378.159-.16-.037-.232-.184-.232-.306 0-.33.317-.378.415-.317 0-.22-.354-.404-.464-.22.122-.232.097-.526-.098-.709a.586.586 0 0 0-.098.697c-.11-.184-.452 0-.452.22.086-.062.403-.013.403.317 0 .122-.073.269-.22.306a.367.367 0 0 1-.39-.16c.024 0 .048-.024.073-.048a.159.159 0 1 0-.135.049.327.327 0 0 1-.244.28.293.293 0 0 1-.22-.537c-.098-.122-.39-.122-.464.086 0-.16-.134-.318-.44-.318a3.42 3.42 0 0 1 .611 1.478 3.176 3.176 0 0 1 1.588-.378z"/>
            <g fill="#f9dd16" stroke-width=".1">
                <path d="M16.368 3.934c-.05 0-.05.061-.061.061.097 0 .146-.037.17-.086v.074c.074-.025.098-.086.074-.122l.085.024c-.048-.037-.012-.122-.097-.171.024 0 .073.024.097.061-.012-.085-.024-.134-.097-.183h.06a.11.11 0 0 1-.048-.098c0-.049-.025-.049-.073-.037l-.22.013c-.123 0-.245 0-.342-.074.158.074.366-.073.366-.183 0-.122-.17-.244-.489-.171-.317.073-.708.049-.708-.061s.28-.122.427-.098c.147.025.245.037.514-.06-.062.024-.281.036-.452-.013s-.587-.049-.587.17c0 .233.44.209.83.148.22-.025.343 0 .343.06 0 .074-.208.098-.367.086a1.222 1.222 0 0 0-.5.037c-.16.049-.27 0-.44.036-.086 0-.293 0-.391-.17-.061.048-.245.134-.281.232-.037.073 0 .158.049.244.073.098-.037.085-.123.085-.097 0-.244 0-.317-.097-.073-.074-.159-.135-.232-.086-.037.037 0 .073.024.061l.098.025a.122.122 0 0 0-.122.012c-.037.024 0 .073.036.061.025-.012.086-.024.123 0-.037 0-.086 0-.098.024s0 .05.036.05c.074 0 .086.048.16.036a.11.11 0 0 0-.086.049c.073-.037.134.049.22.024-.025.012-.086.05-.086.074.049-.062.391.048.391-.086l-.012.098c.037-.025.17-.037.22-.122 0 .024 0 .06-.025.073.037 0 .098-.025.16-.11.024-.037.024-.061.024-.086a.213.213 0 0 0 .146-.048c.05-.037.098.036.183-.025.074-.049.147 0 .196-.024.037-.025.098 0 .147-.025s.122.012.195-.049c.122.05.281.123.635.061.196-.036.27.037.27.123 0 .073-.05.073-.074.073-.122.012-.16-.037-.208-.025-.024.013-.049.062 0 .086-.037.012-.037.049-.012.061s.06 0 .098-.012c-.05.012-.086.049-.062.085.013.025.05.037.086 0 .037-.048.098-.085.147-.085zm-2.273-.977c-.097-.037-.122-.037-.11.048 0 .037.037.086.061.11 0-.036.013-.122.05-.146z" stroke-width=".012217"/>
                <path d="M14.425 2.969c.098-.05.135-.05.11.036 0 .037-.037.086-.061.11 0-.036 0-.122-.049-.146z" stroke-width=".012217"/>
                <path d="M14.266 2.908c.196 0 .22.097.208.207 0 .123-.061.074-.098.245-.012.049-.06.06-.122.06-.037 0-.085 0-.11-.073-.037-.158-.098-.122-.098-.244 0-.098.025-.195.22-.195z" stroke-width=".012217"/>
                <path d="M13.765 3.36c-.048-.025-.085 0-.11 0 .074.012.074.097.22.122-.036 0-.049.024-.085 0 .06.049.122.11.269.11.085 0 .024.036-.025.012.049.061.159.012.232.122 0-.085-.122-.208-.06-.293-.208-.012-.22-.122-.33-.208-.098-.073-.11-.146-.147-.28-.012-.062-.086-.098-.122-.086-.037 0-.062.036-.025.06.025.025.073.025.073.086-.036-.048-.097-.06-.122-.036-.012.024 0 .06.025.06.06 0 .024.074.085.123-.06-.061-.11-.073-.146-.037-.013.025 0 .061.048.061.062 0 .123.147.22.184zm1.589.562c-.025 0-.013.06-.061.06.097 0 .158-.024.195-.06l-.024.06c.048-.036.183-.048.244-.036s.073-.012.098-.049c.024-.049 0-.073-.037-.098-.037-.036-.049-.085-.037-.158-.17-.245-.488-.123-.488-.025.11.135.122.122.22.135.085.024.146.024.085.073-.024.024-.122 0-.183.012-.159 0-.245-.11-.281-.049-.037.05 0 .074.073.074-.049 0-.122 0-.11.048.025.086.098-.012.135.013-.025 0-.074.012-.074.036 0 .025.061.061.122 0a.195.195 0 0 1 .123-.036z" stroke-width=".012217"/>
            </g>
            <path fill="none" stroke-width=".012217" d="M15.488 3.567a.269.269 0 0 0-.171-.024m-.684 0c-.05.098-.025.147-.012.195m-.49-.684c.025.025.05-.024.099.025-.013-.013-.037.036-.074 0m.245-.013c-.037 0-.061-.036-.11.013.012-.013.036.036.073 0m-.073 0v.036c.012.086.036.123-.037.123-.061 0-.037-.037-.024-.123V3.08"/>
            <path fill="#ff0016" stroke-width=".012217" d="M14.266 3.384c.05 0 .074 0 .074-.073 0-.025.036-.037.012-.086.024.05-.086.05-.086.025 0 .024-.122.024-.097-.025-.013.05.024.061.012.086 0 .073.024.073.085.073z"/>
            <path stroke-width=".012217" d="m14.205 3.238-.122-.037m.122.037h-.122m.122.012-.11.036m.208-.048.122-.037m-.122.037h.147m-.147.012.122.036"/>
            <path fill="#0051ba" d="M13.607 2.859c-.037-.05-.123 0-.123.049.025-.037.074.012.11 0 .013 0 .037-.025.013-.05zm-.037.11c-.037-.05-.134 0-.134.049.024-.037.073.012.11 0 .012 0 .036-.037.024-.05zm-.025.146c-.048-.049-.134 0-.122.061.025-.036.074 0 .098 0 .024-.012.037-.048.012-.06zm.037.452c-.049-.049-.122.013-.122.074.024-.05.085 0 .122-.025 0 0 .025-.036 0-.06zm0 .086c-.06-.012-.122.073-.085.122 0-.061.073-.037.097-.061l-.012-.061zm.073.085c-.06-.024-.122.05-.085.098 0-.037.073-.024.085-.049v-.06zm1.43.135c-.061-.012-.122.06-.086.122 0-.061.074-.037.098-.061l-.012-.061zm.073.073c-.06-.012-.11.073-.073.122 0-.06.073-.049.085-.073.013-.012.013-.049 0-.049zm-.049-.17c-.049-.025-.122.048-.11.097.025-.05.086-.012.11-.037v-.049zm1.014.121c-.049-.012-.097.074-.073.122 0-.048.073-.036.098-.06 0-.025 0-.062-.025-.062zm0-.085c-.049-.037-.122.036-.097.085.024-.036.085-.012.11-.036v-.062zm.05.159c-.062 0-.11.085-.074.122 0-.05.073-.037.085-.061.013-.025 0-.05-.012-.061zm-1.907-.636c.037 0 .05.012.05.086 0 .122 0 .195-.05.195-.036 0-.036-.06-.036-.159 0-.048 0-.085-.013-.073 0-.037.013-.049.05-.049z" stroke="none"/>
            <g fill="#f9dd16" stroke-width=".1">
                <path d="M16.184 5.217c-.036 0-.036.049-.049.049.086 0 .123-.025.147-.074v.061c.073-.012.098-.073.073-.11l.074.025c-.037-.025 0-.11-.086-.147.025 0 .061.012.086.05 0-.074-.025-.123-.086-.16h.05a.098.098 0 0 1-.038-.098c0-.036-.024-.036-.073-.024h-.195c-.11 0-.22 0-.306-.061.147.073.33-.061.33-.159 0-.122-.159-.22-.44-.159-.28.074-.635.05-.635-.049s.244-.122.379-.097c.134.024.22.036.464-.05-.049.025-.244.038-.403-.011s-.526-.05-.526.158c0 .208.391.184.733.123.208-.013.318 0 .318.06s-.183.086-.33.074a1.1 1.1 0 0 0-.452.037c-.146.049-.244 0-.39.036-.086 0-.27 0-.367-.158-.05.048-.208.122-.245.207-.024.073 0 .147.05.22.06.086-.037.073-.123.073-.073 0-.208 0-.28-.085-.062-.061-.135-.122-.209-.073-.024.036 0 .06.025.048l.085.025a.11.11 0 0 0-.11.012c-.024.025 0 .073.037.061.025-.012.073-.024.11 0l-.085.012c-.013.013 0 .05.036.05.061 0 .073.048.135.036a.098.098 0 0 0-.074.037c.061-.025.122.048.196.024-.025.012-.074.049-.074.073.037-.06.355.037.355-.085l-.012.085c.024-.012.146-.024.195-.11 0 .025 0 .061-.024.074.036 0 .085-.025.146-.098.025-.037.025-.061.025-.086.048 0 .085 0 .122-.036.049-.037.097.036.17-.025.062-.049.123 0 .172-.024.036-.025.098 0 .134-.025s.122.013.183-.036c.11.036.245.11.562.049.184-.025.245.036.245.122 0 .06-.037.06-.061.06-.122 0-.147-.036-.196-.024-.012 0-.036.05 0 .074-.024.012-.024.049 0 .06s.05 0 .086-.011c-.05 0-.086.036-.061.073.012.024.049.037.085 0 .025-.037.086-.073.122-.073zm-2.04-.88c-.085-.037-.122-.037-.098.037 0 .036.037.085.05.11 0-.037.011-.123.048-.135z" stroke-width=".012217"/>
                <path d="M14.45 4.35c.073-.05.122-.05.085.024a.182.182 0 0 1-.049.11c0-.037 0-.123-.049-.135z" stroke-width=".012217"/>
                <path d="M14.303 4.288c.171 0 .195.086.183.196 0 .11-.06.06-.085.22-.013.036-.061.048-.122.048-.025 0-.074 0-.086-.06-.037-.147-.098-.123-.098-.22s.025-.184.208-.184z" stroke-width=".012217"/>
                <path d="M13.839 4.704c-.037-.025-.074 0-.086 0 .061 0 .061.085.196.11h-.086c.061.036.122.097.244.097.086 0 .025.025-.024 0 .049.061.147.012.22.122 0-.085-.122-.195-.061-.268-.183-.013-.196-.123-.293-.184-.086-.073-.098-.134-.135-.256-.012-.061-.073-.086-.122-.073-.024 0-.049.024 0 .048 0 .025.061.025.061.074-.036-.037-.098-.05-.122-.025 0 .025 0 .05.024.05.062 0 .025.072.086.121-.061-.06-.098-.073-.134-.036-.013.012 0 .049.036.049.061 0 .122.122.208.17zm1.441.488c-.024 0-.012.061-.06.061.085 0 .146-.012.182-.049l-.024.05c.037-.025.159-.037.22-.025s.061-.012.085-.049c.025-.037 0-.061-.036-.086-.025-.036-.037-.073-.025-.146-.158-.22-.44-.11-.44-.025.098.123.11.123.196.123.073.024.122.024.073.073-.024.024-.11 0-.158 0-.147 0-.22-.086-.257-.037-.037.05 0 .061.061.061-.037 0-.11 0-.098.05.025.073.086 0 .122 0-.024 0-.06.024-.06.048 0 .012.048.049.11 0a.171.171 0 0 1 .11-.037z" stroke-width=".012217"/>
            </g>
            <path fill="none" stroke-width=".012217" d="M15.402 4.887a.244.244 0 0 0-.158-.025m-.611 0c-.05.086-.025.123-.012.171m-.44-.61c.012.024.036-.025.085.024-.012-.012-.036.037-.073 0m.22-.012c-.025 0-.049-.037-.098 0 .012 0 .037.049.073 0m-.073 0v.049c.012.073.037.11-.024.11s-.037-.037-.025-.123v-.024"/>
            <path fill="#ff0016" stroke-width=".012217" d="M14.303 4.716c.037 0 .061 0 .061-.061 0-.025.037-.037 0-.074.037.037-.061.037-.061.013 0 .024-.122.024-.098-.013 0 .037.025.05.012.074 0 .06.025.06.086.06z"/>
            <path stroke-width=".012217" d="m14.242 4.594-.11-.037m.11.037h-.11m.11 0-.098.036m.183-.036.123-.037m-.123.037h.135m-.122 0 .097.036"/>
            <path fill="#0051ba" d="M13.704 4.252c-.036-.05-.122 0-.122.036.037-.024.073.012.11 0 0 0 .037-.024 0-.036zm-.036.097c-.025-.049-.123 0-.123.037.025-.025.074.012.098 0 .012 0 .037-.025.025-.037zm-.025.122c-.036-.036-.122 0-.11.062.025-.037.074 0 .098 0 .012 0 .024-.05 0-.05zm.037.416c-.037-.05-.11 0-.11.06.024-.036.073 0 .122-.024l-.024-.036zm0 .073c-.049 0-.11.073-.073.122 0-.06.06-.049.085-.06V4.96zm.073.073c-.06-.012-.122.05-.085.098 0-.037.073-.024.085-.049v-.049zm1.283.123c-.061 0-.122.06-.073.122 0-.061.06-.037.085-.061l-.012-.061zm.061.073c-.049-.012-.098.061-.061.11 0-.061.061-.049.073-.073v-.037zm-.037-.159c-.048-.024-.122.049-.097.086.012-.037.073 0 .097-.025v-.049zm.904.122c-.036-.024-.085.061-.06.098 0-.037.06-.037.085-.049 0-.024 0-.061-.025-.061zm0-.085c-.036-.037-.11.036-.085.073.024-.037.073 0 .098-.037v-.049zm.05.146c-.062 0-.098.074-.062.11 0-.049.061-.036.074-.06l-.013-.05zm-1.711-.574c.024 0 .037 0 .037.073 0 .11 0 .171-.037.171s-.037-.048-.037-.134c0-.049 0-.085-.012-.073 0-.025 0-.037.049-.037z" stroke="none"/>
            <g fill="#f9dd16" stroke-width=".1">
                <path d="M130.7 32.2c-.4 0-.4.5-.5.5.8 0 1.2-.3 1.4-.7v.6c.6-.2.8-.7.6-1l.7.2c-.4-.3-.1-1-.8-1.4.2 0 .6.2.8.5-.1-.7-.2-1.1-.8-1.5h.5a.9.9 0 0 1-.4-.8c0-.4-.2-.4-.6-.3l-1.8.1c-1 0-2 0-2.8-.6 1.3.6 3-.6 3-1.5 0-1-1.4-2-4-1.4-2.6.6-5.8.4-5.8-.5s2.3-1 3.5-.8c1.2.2 2 .3 4.2-.5-.5.2-2.3.3-3.7-.1s-4.8-.4-4.8 1.4c0 1.9 3.6 1.7 6.8 1.2 1.8-.2 2.8 0 2.8.5 0 .6-1.7.8-3 .7a10 10 0 0 0-4.1.3c-1.3.4-2.2 0-3.6.3-.7 0-2.4 0-3.2-1.4-.5.4-2 1.1-2.3 1.9-.3.6 0 1.3.4 2 .6.8-.3.7-1 .7-.8 0-2 0-2.6-.8-.6-.6-1.3-1.1-1.9-.7-.3.3 0 .6.2.5l.8.2a1 1 0 0 0-1 .1c-.3.2 0 .6.3.5.2-.1.7-.2 1 0-.3 0-.7 0-.8.2s0 .4.3.4c.6 0 .7.4 1.3.3a.9.9 0 0 0-.7.4c.6-.3 1.1.4 1.8.2-.2.1-.7.4-.7.6.4-.5 3.2.4 3.2-.7l-.1.8c.3-.2 1.4-.3 1.8-1 0 .2 0 .5-.2.6.3 0 .8-.2 1.3-.9.2-.3.2-.5.2-.7.5 0 .8-.1 1.2-.4.4-.3.8.3 1.5-.2.6-.4 1.2 0 1.6-.2.3-.2.8 0 1.2-.2s1 .1 1.6-.4c1 .4 2.3 1 5.2.5 1.6-.3 2.2.3 2.2 1 0 .6-.4.6-.6.6-1 .1-1.3-.3-1.7-.2-.2.1-.4.5 0 .7-.3.1-.3.4-.1.5s.5 0 .8-.1c-.4.1-.7.4-.5.7.1.2.4.3.7 0 .3-.4.8-.7 1.2-.7zm-18.6-8c-.8-.3-1-.3-.9.4 0 .3.3.7.5.9 0-.3.1-1 .4-1.2z" transform="matrix(.08 0 0 .1 5.19 3.36)"/>
                <path d="M114.8 24.3c.8-.4 1.1-.4.9.3 0 .3-.3.7-.5.9 0-.3 0-1-.4-1.2z" transform="matrix(.08 0 0 .1 5.19 3.36)"/>
                <path d="M113.5 23.8c1.6 0 1.8.8 1.7 1.7 0 1-.5.6-.8 2-.1.4-.5.5-1 .5-.3 0-.7 0-.9-.6-.3-1.3-.8-1-.8-2 0-.8.2-1.6 1.8-1.6z" transform="matrix(.08 0 0 .1 5.19 3.36)"/>
                <path d="M109.4 27.5c-.4-.2-.7 0-.9 0 .6.1.6.8 1.8 1-.3 0-.4.2-.7 0 .5.4 1 .9 2.2.9.7 0 .2.3-.2.1.4.5 1.3.1 1.9 1 0-.7-1-1.7-.5-2.4-1.7-.1-1.8-1-2.7-1.7-.8-.6-.9-1.2-1.2-2.3-.1-.5-.7-.8-1-.7-.3 0-.5.3-.2.5.2.2.6.2.6.7-.3-.4-.8-.5-1-.3-.1.2 0 .5.2.5.5 0 .2.6.7 1-.5-.5-.9-.6-1.2-.3-.1.2 0 .5.4.5.5 0 1 1.2 1.8 1.5zm13 4.6c-.2 0-.1.5-.5.5.8 0 1.3-.2 1.6-.5l-.2.5c.4-.3 1.5-.4 2-.3s.6-.1.8-.4c.2-.4 0-.6-.3-.8-.3-.3-.4-.7-.3-1.3-1.4-2-4-1-4-.2.9 1.1 1 1 1.8 1.1.7.2 1.2.2.7.6-.2.2-1 0-1.5.1-1.3 0-2-.9-2.3-.4-.3.4 0 .6.6.6-.4 0-1 0-.9.4.2.7.8-.1 1.1.1-.2 0-.6.1-.6.3 0 .2.5.5 1 0a1.6 1.6 0 0 1 1-.3z" transform="matrix(.08 0 0 .1 5.19 3.36)"/>
            </g>
            <path fill="none" stroke-width=".1" d="M123.5 29.2c-.4-.2-.9-.3-1.4-.2m-5.6 0c-.4.8-.2 1.2-.1 1.6m-4-5.6c.2.2.4-.2.8.2-.1-.1-.3.3-.6 0m2-.1c-.3 0-.5-.3-.9.1.1-.1.3.3.6 0m-.6 0v.3c.1.7.3 1-.3 1-.5 0-.3-.3-.2-1v-.3" transform="matrix(.08 0 0 .1 5.19 3.36)"/>
            <path fill="#ff0016" stroke-width=".1" d="M113.5 27.7c.4 0 .6 0 .6-.6 0-.2.3-.3.1-.7.2.4-.7.4-.7.2 0 .2-1 .2-.8-.2-.1.4.2.5.1.7 0 .6.2.6.7.6z" transform="matrix(.08 0 0 .1 5.19 3.36)"/>
            <path stroke-width=".1" d="m113 26.5-1-.3m1 .3h-1m1 .1-.9.3m1.7-.4 1-.3m-1 .3h1.2m-1.2.1 1 .3" transform="matrix(.08 0 0 .1 5.19 3.36)"/>
            <path fill="#0051ba" d="M14.037 5.504c-.024-.037-.081 0-.081.036.016-.027.049.01.073 0 .008 0 .025-.018.008-.036zm-.024.082c-.025-.036-.09 0-.09.037.016-.028.049.009.074 0 .008 0 .024-.028.016-.037zm-.016.11c-.033-.036-.09 0-.082.046.016-.027.049 0 .065 0 .017-.01.025-.037.008-.046zm.024.34c-.033-.037-.082.008-.082.054.017-.036.058 0 .082-.018 0 0 .016-.028 0-.046zm0 .063c-.04-.009-.082.055-.057.092 0-.046.049-.028.065-.046l-.008-.046zm.05.064c-.042-.018-.083.037-.058.074 0-.028.049-.019.057-.037v-.046zm.957.101c-.041-.009-.082.046-.057.092 0-.046.049-.028.065-.046l-.008-.046zm.049.055c-.04-.009-.074.055-.05.092 0-.046.05-.037.058-.055.008-.01.008-.037 0-.037zm-.033-.128c-.032-.018-.082.037-.073.073.016-.036.057-.009.073-.027V6.2zm.68.092c-.033-.01-.066.055-.05.091 0-.036.05-.027.066-.046 0-.018 0-.045-.016-.045zm0-.065c-.033-.027-.082.028-.066.065.017-.028.057-.01.074-.028V6.21zm.032.12c-.04 0-.073.064-.049.091 0-.036.05-.027.058-.046.008-.018 0-.036-.009-.045zM14.48 5.86c.025 0 .033.01.033.064 0 .092 0 .147-.033.147-.024 0-.024-.046-.024-.12 0-.036 0-.063-.008-.054 0-.028.008-.037.032-.037z" stroke="none"/>
        </g>
    </g>
</svg>
