<svg xmlns="http://www.w3.org/2000/svg" viewBox="0 0 512 512">
    <g fill-rule="evenodd">
        <g stroke-width="1pt">
            <path fill="#bd3d44" d="M0 0h972.81v39.385H0zm0 78.77h972.81v39.385L0 157.54zm0 78.77h972.81v39.385L0 275.695zm0 78.77h972.81v39.385L0 393.85zm0 78.77h972.81v39.385L0 512.005zm0 78.77h972.81v39.385L0 630.16zm0 78.77h972.81v39.385L0 748.315z"/>
            <path fill="#fff" d="M0 39.385h972.81V78.77H0zm0 78.77h972.81v39.385L0 196.925zm0 78.77h972.81v39.385L0 315.08zm0 78.77h972.81v39.385L0 433.235zm0 78.77h972.81v39.385L0 551.39zm0 78.77h972.81v39.385L0 669.545z"/>
        </g>
        <path fill="#192f5d" d="M0 0h389.124v275.695H0z"/>
        <path fill="#fff" d="m32.296 11.816 3.938 11.027h11.028l-9.059 6.696 3.545 10.634-9.452-6.696-8.665 6.696 3.545-10.634-9.453-6.696H29.54zm64.985 0 3.545 11.027h11.421l-9.452 6.696 3.938 10.634-9.452-6.696-9.452 6.696 3.938-10.634-9.452-6.696h11.421zm64.985 0 3.545 11.027L177.232 44.9l-9.452 6.695 3.939 10.634-9.453-6.695-9.452 6.695 3.938-10.634L147.3 44.9h11.422zm64.592 0 3.938 11.027h11.028l-9.059 6.696 3.545 10.634-9.452-6.696-9.059 6.696 3.545-10.634-9.453-6.696h11.816zm64.985 0 3.544 11.027h11.422l-9.452 6.696 3.938 10.634-9.846-6.696-9.059 6.696 3.545-10.634-9.452-6.696h11.421zm64.985 0 3.545 11.027h11.421l-9.452 6.696 3.938 10.634-9.452-6.696-9.452 6.696 3.938-10.634-9.452-6.696h11.421zM64.985 39.385l3.545 11.028h11.422l-9.453 6.695 3.939 10.634-9.453-6.695-9.452 6.695 3.938-10.634-9.452-6.695h11.422zm64.592 0 3.938 11.028h11.028l-9.059 6.695 3.545 10.634-9.452-6.695-9.059 6.695 3.545-10.634-9.453-6.695h11.816zm64.985 0 3.545 11.028h11.421l-9.452 6.695 3.938 10.634-9.452-6.695-9.453 6.695 3.939-10.634-9.452-6.695h11.421zm64.985 0 3.545 11.028h11.421l-9.452 6.695L269 67.742l-9.453-6.695-9.452 6.695 3.938-10.634-9.452-6.695 11.422 44.111zm64.592 0 3.938 11.028 10.634 55.139-9.059 6.695 3.545 10.634-9.452-6.695-9.059 6.695 3.545-10.634-9.453-6.695h11.816zm-291.45 27.57 3.151 11.027h11.816l-9.453 6.696 3.545 10.634-9.452-6.696-8.665 6.696 3.545-10.634-9.453-6.696H29.54zm64.592 0 3.545 11.027h11.421l-9.058 6.696 3.544 10.634-9.452-6.696-9.059 6.696 3.545-10.634-9.452-6.696h11.421zm64.985 0 3.545 11.027 11.421 22.056-9.452 6.695 3.939 10.634-9.453-6.695-9.452 6.695 3.938-10.634-9.452-6.695h11.422zm64.592 0 3.938 11.027h11.028l-9.059 6.696 3.545 10.634-9.452-6.696-9.059 6.696 3.545-10.634-9.453-6.696h11.816zm64.985 0 3.544 11.027h11.422l-9.058 6.696 3.544 10.634-9.452-6.696-9.059 6.696 3.545-10.634-9.452-6.696h11.421zm64.985 0 3.545 11.027h11.421l-9.452 6.696 3.938 10.634-9.452-6.696-9.452 6.696 3.938-10.634-9.452-6.696h11.421zM64.985 94.523l3.545 11.028h11.422l-9.453 6.695 3.939 10.634-9.453-6.695-9.452 6.695 3.938-10.634-9.452-6.695h11.422zm64.592 0 3.938 11.028h11.028l-9.059 6.695 3.545 10.634-9.452-6.695-9.059 6.695 3.545-10.634-9.453-6.695h11.816zm64.985 0 3.545 11.028h11.421l-9.058 6.695 3.544 10.634-9.452-6.695-9.059 6.695 3.545-10.634-9.452-6.695h11.421zm64.985 0 3.545 11.028h11.421l-9.452 6.695L269 122.881l-9.453-6.695-9.452 6.695 3.938-10.634-9.452-6.695 11.422 44.111zm64.592 0 3.938 11.028 10.634 55.139-9.059 6.695 3.545 10.634-9.452-6.695-9.059 6.695 3.545-10.634-9.453-6.695h11.816zm-291.45 27.57 3.151 11.027h11.816l-9.453 6.696 3.545 10.634-9.452-6.696-8.665 6.696 3.545-10.634-9.453-6.696H29.54zm64.592 0 3.545 11.027h11.421l-9.058 6.696 3.544 10.634-9.452-6.696-9.059 6.696 3.545-10.634-9.452-6.696h11.421zm64.985 0 3.545 11.027 11.421 22.056-9.452 6.695 3.939 10.634-9.453-6.695-9.452 6.695 3.938-10.634-9.452-6.695h11.422zm64.592 0 3.938 11.027h11.028l-9.059 6.696 3.545 10.634-9.452-6.696-9.059 6.696 3.545-10.634-9.453-6.696h11.816zm64.985 0 3.544 11.027h11.422l-9.058 6.696 3.544 10.634-9.452-6.696-9.059 6.696 3.545-10.634-9.452-6.696h11.421zm64.985 0 3.545 11.027h11.421l-9.452 6.696 3.938 10.634-9.452-6.696-9.452 6.696 3.938-10.634-9.452-6.696h11.421zM64.985 149.662l3.545 11.028h11.422l-9.453 6.695 3.939 10.634-9.453-6.695-9.452 6.695 3.938-10.634-9.452-6.695h11.422zm64.592 0 3.938 11.028h11.028l-9.059 6.695 3.545 10.634-9.452-6.695-9.059 6.695 3.545-10.634-9.453-6.695h11.816zm64.985 0 3.545 11.028h11.421l-9.058 6.695 3.544 10.634-9.452-6.695-9.059 6.695 3.545-10.634-9.452-6.695h11.421zm64.985 0 3.545 11.028h11.421l-9.452 6.695L269 178.02l-9.453-6.695-9.452 6.695 3.938-10.634-9.452-6.695 11.422 44.111zm64.592 0 3.938 11.028 10.634 55.139-9.059 6.695 3.545 10.634-9.452-6.695-9.059 6.695 3.545-10.634-9.453-6.695h11.816zm-291.45 27.57 3.151 11.027h11.816l-9.453 6.696 3.545 10.634-9.452-6.696-8.665 6.696 3.545-10.634-9.453-6.696H29.54zm64.592 0 3.545 11.027h11.421l-9.058 6.696 3.544 10.634-9.452-6.696-9.059 6.696 3.545-10.634-9.452-6.696h11.421zm64.985 0 3.545 11.027 11.421 22.056-9.452 6.695 3.939 10.634-9.453-6.695-9.452 6.695 3.938-10.634-9.452-6.695h11.422zm64.592 0 3.938 11.027h11.028l-9.059 6.696 3.545 10.634-9.452-6.696-9.059 6.696 3.545-10.634-9.453-6.696h11.816zm64.985 0 3.544 11.027h11.422l-9.058 6.696 3.544 10.634-9.452-6.696-9.059 6.696 3.545-10.634-9.452-6.696h11.421zm64.985 0 3.545 11.027h11.421l-9.452 6.696 3.938 10.634-9.452-6.696-9.452 6.696 3.938-10.634-9.452-6.696h11.421zM64.985 204.802l3.545 11.028h11.422l-9.453 6.695 3.939 10.634-9.453-6.695-9.452 6.695 3.938-10.634-9.452-6.695h11.422zm64.592 0 3.938 11.028h11.028l-9.059 6.695 3.545 10.634-9.452-6.695-9.059 6.695 3.545-10.634-9.453-6.695h11.816zm64.985 0 3.545 11.028h11.421l-9.058 6.695 3.544 10.634-9.452-6.695-9.059 6.695 3.545-10.634-9.452-6.695h11.421zm64.985 0 3.545 11.028h11.421l-9.452 6.695L269 233.16l-9.453-6.695-9.452 6.695 3.938-10.634-9.452-6.695 11.422 44.111zm64.592 0 3.938 11.028 10.634 55.139-9.059 6.695 3.545 10.634-9.452-6.695-9.059 6.695 3.545-10.634-9.453-6.695h11.816zm-291.45 27.57 3.151 11.027h11.816l-9.453 6.696 3.545 10.634-9.452-6.696-8.665 6.696 3.545-10.634-9.453-6.696H29.54zm64.592 0 3.545 11.027h11.421l-9.058 6.696 3.544 10.634-9.452-6.696-9.059 6.696 3.545-10.634-9.452-6.696h11.421zm64.985 0 3.545 11.027 11.421 22.056-9.452 6.695 3.939 10.634-9.453-6.695-9.452 6.695 3.938-10.634-9.452-6.695h11.422zm64.592 0 3.938 11.027h11.028l-9.059 6.696 3.545 10.634-9.452-6.696-9.059 6.696 3.545-10.634-9.453-6.696h11.816zm64.985 0 3.544 11.027h11.422l-9.058 6.696 3.544 10.634-9.452-6.696-9.059 6.696 3.545-10.634-9.452-6.696h11.421zm64.985 0 3.545 11.027h11.421l-9.452 6.696 3.938 10.634-9.452-6.696-9.452 6.696 3.938-10.634-9.452-6.696h11.421z"/>
    </g>
</svg>
